<svg width="534" height="331" viewBox="0 0 534 331" fill="none" xmlns="http://www.w3.org/2000/svg">
<g clip-path="url(#clip0_506_70)">
<path d="M-5 0H534V321H-5V0Z" fill="url(#paint0_linear_506_70)" fill-opacity="0.54"/>
<path d="M0 0H534V331H0V0Z" fill="url(#paint1_linear_506_70)" fill-opacity="0.54"/>
<path d="M5 332.986L504.025 336L517 306.113C517 306.113 468.997 242.07 414.477 269.278C367.811 292.635 311.064 249.772 285.336 248.182C222.909 244.331 206.091 303.016 168.613 303.016C131.134 303.016 115.709 244.833 73.2741 254.209C30.8395 263.585 5 332.986 5 332.986Z" fill="#F8FCF5"/>
<path d="M0 318C0 311.373 5.37258 306 12 306H522C528.627 306 534 311.373 534 318V331H0V318Z" fill="white"/>
<path d="M249.681 146.064C249.686 148.025 249.209 149.969 248.277 151.782C247.345 153.595 245.975 155.242 244.248 156.629C242.521 158.016 240.47 159.116 238.212 159.864C235.955 160.613 233.535 160.996 231.092 160.992H121.194C118.703 161.057 116.221 160.72 113.896 159.999C111.572 159.278 109.451 158.19 107.66 156.798C105.87 155.406 104.446 153.739 103.473 151.897C102.501 150.054 102 148.073 102 146.072C102 144.07 102.501 142.09 103.473 140.247C104.446 138.404 105.87 136.737 107.66 135.345C109.451 133.954 111.572 132.865 113.896 132.144C116.221 131.424 118.703 131.086 121.194 131.151H145.848C145.729 130.481 145.67 129.804 145.67 129.127C145.665 127.166 146.142 125.223 147.075 123.409C148.007 121.596 149.376 119.949 151.103 118.562C152.831 117.175 154.882 116.076 157.139 115.327C159.397 114.578 161.817 114.195 164.259 114.199H167.567V107.51C167.567 103.131 169.733 98.9317 173.589 95.8356C177.444 92.7394 182.673 91 188.125 91C193.578 91 198.807 92.7394 202.662 95.8356C206.518 98.9317 208.683 103.131 208.683 107.51V114.199H213.961C218.891 114.199 223.619 115.772 227.105 118.571C230.591 121.371 232.55 125.168 232.55 129.127C232.553 129.821 232.487 130.514 232.353 131.199C237.051 131.448 241.455 133.122 244.673 135.882C247.891 138.643 249.681 142.283 249.681 146.064Z" fill="white"/>
<path d="M518.586 97.7197C534.995 97.7197 548.297 84.4178 548.297 68.009C548.297 51.6003 534.995 38.2983 518.586 38.2983C502.177 38.2983 488.875 51.6003 488.875 68.009C488.875 84.4178 502.177 97.7197 518.586 97.7197Z" fill="white"/>
<path d="M521.009 13H520.991C519.663 13 518.586 14.0768 518.586 15.4051V24.3563C518.586 25.6845 519.663 26.7613 520.991 26.7613H521.009C522.337 26.7613 523.414 25.6845 523.414 24.3563V15.4051C523.414 14.0768 522.337 13 521.009 13Z" fill="white"/>
<path d="M521.009 109.239H520.991C519.663 109.239 518.586 110.315 518.586 111.644V120.595C518.586 121.923 519.663 123 520.991 123H521.009C522.337 123 523.414 121.923 523.414 120.595V111.644C523.414 110.315 522.337 109.239 521.009 109.239Z" fill="white"/>
<path d="M482.11 29.1152L482.097 29.128C481.158 30.0673 481.158 31.5901 482.097 32.5293L488.427 38.8587C489.366 39.798 490.889 39.798 491.828 38.8587L491.841 38.846C492.78 37.9067 492.78 36.3839 491.841 35.4447L485.511 29.1152C484.572 28.176 483.049 28.176 482.11 29.1152Z" fill="white"/>
<path d="M466 67.991V68.0091C466 69.3373 467.077 70.4141 468.405 70.4141H477.356C478.685 70.4141 479.761 69.3373 479.761 68.0091V67.991C479.761 66.6627 478.685 65.5859 477.356 65.5859H468.405C467.077 65.5859 466 66.6627 466 67.991Z" fill="white"/>
<path d="M491.842 97.1544L491.83 97.1416C490.89 96.2024 489.368 96.2024 488.428 97.1416L482.099 103.471C481.16 104.41 481.16 105.933 482.099 106.872L482.112 106.885C483.051 107.824 484.574 107.824 485.513 106.885L491.842 100.556C492.782 99.6165 492.782 98.0936 491.842 97.1544Z" fill="white"/>
<path d="M411.681 83.0638C411.686 85.0254 411.209 86.9685 410.277 88.7816C409.345 90.5946 407.975 92.2419 406.248 93.629C404.521 95.016 402.47 96.1155 400.212 96.8643C397.955 97.613 395.535 97.9963 393.092 97.9921H283.194C280.703 98.0572 278.221 97.7195 275.896 96.999C273.572 96.2785 271.451 95.1899 269.66 93.798C267.87 92.4061 266.446 90.7392 265.473 88.8966C264.501 87.0539 264 85.073 264 83.0717C264 81.0704 264.501 79.0896 265.473 77.2469C266.446 75.4042 267.87 73.7374 269.66 72.3455C271.451 70.9535 273.572 69.865 275.896 69.1445C278.221 68.424 280.703 68.0862 283.194 68.1514H307.848C307.729 67.4808 307.67 66.8044 307.67 66.1272C307.665 64.1656 308.142 62.2225 309.075 60.4095C310.007 58.5964 311.376 56.9491 313.103 55.562C314.831 54.175 316.882 53.0755 319.139 52.3268C321.397 51.578 323.817 51.1947 326.259 51.1989H329.567V44.5097C329.567 40.131 331.733 35.9317 335.589 32.8356C339.444 29.7394 344.673 28 350.125 28C355.578 28 360.807 29.7394 364.662 32.8356C368.518 35.9317 370.683 40.131 370.683 44.5097V51.1989H375.961C380.891 51.1989 385.619 52.7717 389.105 55.5713C392.591 58.3709 394.55 62.168 394.55 66.1272C394.553 66.8209 394.487 67.5136 394.353 68.1988C399.051 68.4477 403.455 70.122 406.673 72.8824C409.891 75.6428 411.681 79.2826 411.681 83.0638Z" fill="white"/>
<path d="M434.818 300.857C434.818 300.857 430.554 296.268 432.284 296.129C434.014 295.99 435.621 297.172 435.868 298.076C436.116 298.98 436.116 294.669 437.228 294.808C438.34 294.947 438.958 296.338 438.526 298.215C438.526 298.215 440.009 296.755 441.43 296.755C442.851 296.755 442.604 298.702 441.801 299.397C440.998 300.093 438.587 301.761 438.587 301.761H434.756L434.818 300.857ZM314.374 303.221L313.818 282.919C313.818 282.919 291.633 281.737 301.15 262.269C301.15 262.269 303.436 261.921 303.436 258.584C303.436 255.246 298.183 255.246 297.874 253.091C297.565 250.935 297.565 246.138 302.756 242.036C307.947 237.933 296.206 228.825 295.897 227.295C295.588 225.766 295.897 222.15 299.481 218.465C303.065 214.78 304.054 210.748 303.745 207.062C303.436 203.377 294.599 198.58 298.492 194.895C302.386 191.21 310.605 188.29 311.223 185.3C311.841 182.31 310.914 169.099 318.762 172.437C326.61 175.774 343.914 171.672 347.498 172.089C352.503 172.437 357.138 175.427 359.919 180.155C363.812 186.412 366.47 181.962 368.076 186.412C369.683 190.862 366.099 205.185 369.065 208.87C372.031 212.555 376.605 215.475 374.627 222.081C372.649 228.686 365.481 232.719 365.481 235.291C365.481 237.864 368.756 246.694 368.756 249.267C368.756 251.839 367.458 255.872 363.503 256.637C359.548 257.402 359.239 259.557 359.239 264.355C359.239 269.152 356.273 265.467 356.273 265.467L356.953 301.831H352.071C352.071 301.831 352.071 268.387 351.082 264.702H347.807L348.116 301.831H344.223L343.914 268.735C343.914 268.735 339.032 262.13 337.054 261.782C335.077 261.434 338.352 302.596 338.352 302.596H334.768L333.779 265.119C333.779 265.119 332.172 272.489 330.504 272.489C328.835 272.489 331.183 302.248 331.183 302.248H327.599L326.301 272.072C326.301 272.072 324.324 268.04 322.717 273.185C321.11 278.33 319.936 274.228 320.245 276.383C320.554 278.539 320.678 303.152 320.678 303.152L314.374 303.221ZM33.4428 301.136L38.6338 301.344L38.3866 280.833C38.3866 280.833 43.2686 275.34 46.5439 275.688C49.8191 276.035 57.2966 277.913 61.4989 273.115C65.7011 268.318 62.4876 263.242 64.7741 263.242C67.0606 263.242 62.7966 257.402 62.7966 254.829C62.7966 253.16 67.1224 227.017 57.6056 229.59C49.2012 231.815 45.4315 214.572 36.2855 221.177C29.0552 226.392 19.3529 223.332 18.6732 228.408C17.0664 240.645 7.73501 236.751 9.09456 243.843C11.0721 254.134 9.71253 258.514 13.6058 259.627C17.499 260.739 12.617 265.467 14.2238 269.152C15.8305 272.837 14.5327 276.453 19.1058 276.453C23.6788 276.453 26.5833 277.913 29.5495 278.678C32.5158 279.442 33.1338 281.25 33.1338 281.25L33.4428 301.136ZM451.318 303.36L456.509 303.569L456.262 283.058C456.262 283.058 461.144 277.565 464.419 277.913C467.694 278.26 475.172 280.138 479.374 275.34C483.576 270.543 480.363 265.467 482.649 265.467C484.936 265.467 480.672 259.627 480.672 257.054C480.672 255.385 485.059 229.242 475.481 231.815C467.076 234.04 463.306 216.797 454.16 223.402C446.93 228.617 437.228 225.557 436.548 230.633C434.941 242.87 425.61 238.976 426.969 246.068C428.947 256.359 427.587 260.739 431.481 261.852C435.374 262.964 430.492 267.692 432.16 271.377C433.829 275.062 432.47 278.678 437.043 278.678C441.616 278.678 444.52 280.138 447.486 280.903C450.453 281.667 451.071 283.475 451.071 283.475L451.318 303.36Z" fill="#F1FAE9"/>
<path d="M50.1587 296.023L54.4414 296.254L54.2375 275.138C54.2375 275.138 58.2652 269.469 60.9674 269.874C63.6696 270.279 69.8387 272.13 73.3056 267.213C76.7725 262.295 74.1213 257.031 76.0077 257.031C77.8942 257.031 74.3763 251.014 74.3763 248.353C74.3763 246.618 77.9452 219.717 70.0936 222.378C63.1597 224.692 60.0497 206.874 52.504 213.7C46.5389 219.08 38.5343 215.899 37.9735 221.163C36.6479 233.775 28.9493 229.783 30.071 237.072C31.7025 247.659 30.5808 252.171 33.7928 253.328C37.0048 254.485 32.9771 259.345 34.3027 263.163C35.6282 266.981 34.5576 270.684 38.3304 270.684C42.1032 270.684 44.4995 272.188 46.9467 272.94C49.394 273.692 49.9038 275.601 49.9038 275.601L50.1587 296.023Z" fill="#F1FAE9"/>
<g clip-path="url(#clip1_506_70)">
<path d="M116.721 245.965C116.721 245.965 119.427 251.743 120.721 253.102C122.014 254.461 141.119 263.068 141.119 263.068C141.119 263.068 141.861 263.976 143.268 263.428C144.674 262.88 146.18 259.26 146.18 259.26C146.18 259.26 145.122 257.731 143.831 257.665C142.541 257.6 143.268 256.594 143.268 256.594L140.991 257.665C140.991 257.665 139.613 258.373 135.998 255.705C132.384 253.036 125.065 249.601 125.065 249.601L123.499 245.15L116.721 245.965Z" fill="url(#paint2_linear_506_70)"/>
<path d="M116.721 245.965C116.721 245.965 119.427 251.743 120.721 253.102C122.014 254.461 141.119 263.068 141.119 263.068C141.119 263.068 141.861 263.976 143.268 263.428C144.674 262.88 146.18 259.26 146.18 259.26C146.18 259.26 145.122 257.731 143.831 257.665C142.541 257.6 143.268 256.594 143.268 256.594L140.991 257.665C140.991 257.665 139.613 258.373 135.998 255.705C132.384 253.036 125.065 249.601 125.065 249.601L123.499 245.15L116.721 245.965Z" fill="url(#paint3_linear_506_70)"/>
<path d="M122.753 232.291L123.953 243.4V245.605H122.127L119.336 240.65L122.753 232.291Z" fill="#167FFC"/>
<path d="M122.753 232.291L123.953 243.4V245.605H122.127L119.336 240.65L122.753 232.291Z" fill="url(#paint4_linear_506_70)"/>
<path d="M66.4658 317.203C63.6877 317.109 60.9065 317.018 58.1316 317.168C54.6677 317.359 51.2413 317.926 47.8149 318.493L38.0244 320.115C40.1197 322.48 43.4364 323.247 46.5308 323.899C49.1523 324.453 51.805 325.001 54.4766 325.189C57.6086 325.411 60.7844 325.126 63.932 324.938C76.0276 324.221 88.1577 324.916 100.263 325.367C119.159 326.075 138.063 326.191 156.976 325.715C156.528 324.362 155.135 323.523 153.735 323.247C152.335 322.971 150.894 323.184 149.472 323.285C144.185 323.661 139.412 322.398 134.567 320.435C130.539 318.803 126.49 319.201 122.171 319.057L86.7797 317.879L66.4658 317.203Z" fill="url(#paint5_linear_506_70)"/>
<path d="M111.315 309.094C115.301 309.094 118.531 305.828 118.531 301.8C118.531 297.772 115.301 294.506 111.315 294.506C107.33 294.506 104.099 297.772 104.099 301.8C104.099 305.828 107.33 309.094 111.315 309.094Z" fill="#167FFC"/>
<path d="M111.315 309.094C115.301 309.094 118.531 305.828 118.531 301.8C118.531 297.772 115.301 294.506 111.315 294.506C107.33 294.506 104.099 297.772 104.099 301.8C104.099 305.828 107.33 309.094 111.315 309.094Z" fill="url(#paint6_linear_506_70)"/>
<path d="M57.8717 323.031C53.0475 323.031 48.3316 321.6 44.3204 318.92C40.3092 316.24 37.1829 312.431 35.3367 307.974C33.4905 303.517 33.0075 298.613 33.9487 293.881C34.8898 289.15 37.2129 284.804 40.6242 281.393C44.0354 277.982 48.3816 275.659 53.1131 274.717C57.8447 273.776 62.749 274.259 67.206 276.105C71.663 277.951 75.4725 281.078 78.1527 285.089C80.8329 289.1 82.2634 293.816 82.2634 298.64C82.2535 305.106 79.6805 311.304 75.1083 315.876C70.5361 320.448 64.3378 323.021 57.8717 323.031ZM57.8717 277.139C53.6185 277.139 49.4608 278.401 45.9244 280.764C42.388 283.127 39.6318 286.485 38.0043 290.415C36.3768 294.344 35.9511 298.668 36.7811 302.839C37.6111 307.011 39.6595 310.842 42.6672 313.849C45.6749 316.857 49.5068 318.904 53.6784 319.734C57.85 320.563 62.1738 320.137 66.1031 318.509C70.0324 316.881 73.3907 314.124 75.7532 310.587C78.1157 307.051 79.3764 302.893 79.3758 298.64C79.3691 292.939 77.1013 287.474 73.0699 283.443C69.0384 279.412 63.5726 277.145 57.8717 277.139ZM144.912 325.035C140.148 325.035 135.491 323.621 131.531 320.974C127.57 318.327 124.484 314.564 122.662 310.163C120.84 305.761 120.364 300.918 121.295 296.246C122.225 291.574 124.521 287.283 127.89 283.916C131.26 280.548 135.553 278.256 140.225 277.328C144.898 276.4 149.741 276.879 154.141 278.704C158.542 280.529 162.302 283.618 164.947 287.58C167.592 291.542 169.003 296.2 169 300.964C168.988 307.347 166.446 313.465 161.931 317.978C157.416 322.49 151.296 325.028 144.912 325.035ZM144.912 279.989C140.767 279.989 136.714 281.219 133.267 283.521C129.82 285.824 127.134 289.097 125.547 292.927C123.96 296.756 123.544 300.97 124.352 305.036C125.16 309.102 127.155 312.837 130.085 315.769C133.016 318.701 136.749 320.698 140.815 321.509C144.88 322.319 149.095 321.905 152.925 320.321C156.756 318.736 160.031 316.051 162.335 312.606C164.64 309.16 165.872 305.109 165.874 300.964C165.874 295.402 163.667 290.068 159.736 286.134C155.805 282.199 150.474 279.986 144.912 279.98V279.989Z" fill="black"/>
<path d="M145.642 305.896C145.499 306.011 145.326 306.082 145.144 306.1C134.423 302.26 132.303 274.957 132.303 274.957L134.937 274.396C134.937 274.465 134.937 274.537 134.956 274.606C136.741 297.202 145.739 305.564 145.739 305.564C145.75 305.624 145.748 305.684 145.731 305.742C145.714 305.8 145.683 305.853 145.642 305.896Z" fill="#167FFC"/>
<path d="M145.642 305.896C135.366 301.393 133.314 274.969 133.314 274.969L134.962 274.618C136.747 297.215 145.745 305.577 145.745 305.577C145.754 305.635 145.749 305.693 145.731 305.749C145.713 305.804 145.683 305.855 145.642 305.896Z" fill="url(#paint7_linear_506_70)"/>
<path d="M83.8481 260.929L93.8986 280.347L100.116 279.864L100.535 260.299C100.535 260.299 85.3515 247.953 83.8481 260.929Z" fill="#595BD4"/>
<path d="M100.003 281.784L99.6459 279.905L93.8988 280.35L94.7945 282.915L94.3936 284.167C93.6265 286.571 93.4705 289.127 93.9395 291.606L102.321 308.518L105.327 308.32L100.003 281.784Z" fill="url(#paint8_linear_506_70)"/>
<path d="M89.6172 269.827H92.2763L86.6701 301.443C86.6176 301.746 86.4595 302.021 86.224 302.218C85.9884 302.416 85.6904 302.524 85.3828 302.523H85.3609C85.1697 302.523 84.9809 302.481 84.8076 302.4C84.6344 302.319 84.481 302.201 84.358 302.055C84.2351 301.908 84.1457 301.737 84.0961 301.552C84.0464 301.367 84.0377 301.174 84.0705 300.986L89.6172 269.827Z" fill="#167FFC"/>
<path d="M89.6173 275.693L131.595 265.27V268.417L89.6173 279.044V275.693ZM86.7922 296.272L131.595 269.065V272.943L86.7922 299.817V296.272Z" fill="#167FFC"/>
<path d="M86.7922 296.272L131.595 269.065V272.943L86.7922 299.817V296.272Z" fill="url(#paint9_linear_506_70)"/>
<path d="M136.481 265.075V272.83C136.481 273.256 136.332 273.669 136.059 273.997C135.786 274.324 135.406 274.545 134.987 274.621L133.734 274.85C133.472 274.898 133.202 274.888 132.943 274.82C132.685 274.753 132.445 274.629 132.24 274.458C132.035 274.287 131.87 274.073 131.757 273.831C131.644 273.589 131.585 273.326 131.586 273.059V265.301C131.586 264.875 131.736 264.462 132.009 264.135C132.282 263.808 132.66 263.586 133.08 263.51L133.308 263.469L134.326 263.284C134.589 263.235 134.86 263.244 135.119 263.311C135.378 263.379 135.619 263.502 135.825 263.673C136.03 263.844 136.196 264.059 136.309 264.301C136.423 264.543 136.481 264.808 136.481 265.075Z" fill="#167FFC"/>
<path d="M136.481 264.574V273.178C136.481 273.506 136.366 273.825 136.155 274.077C135.944 274.33 135.652 274.5 135.328 274.559L133.249 274.941C133.046 274.978 132.838 274.969 132.639 274.917C132.441 274.864 132.256 274.769 132.098 274.637C131.94 274.506 131.812 274.341 131.725 274.155C131.638 273.968 131.592 273.765 131.592 273.56V264.947C131.592 264.618 131.707 264.3 131.918 264.047C132.128 263.795 132.421 263.625 132.744 263.566L133.314 263.459L134.824 263.184C135.027 263.146 135.236 263.154 135.436 263.207C135.636 263.26 135.821 263.356 135.98 263.489C136.138 263.622 136.265 263.788 136.352 263.976C136.438 264.163 136.482 264.368 136.481 264.574Z" fill="url(#paint10_linear_506_70)"/>
<path d="M138.203 273.995L136.481 274.308V262.886L133.314 263.466V263.434L138.203 262.536" fill="url(#paint11_linear_506_70)"/>
<path d="M136.481 262.886V274.308L133.314 274.888V263.466L136.481 262.886Z" fill="url(#paint12_linear_506_70)"/>
<path d="M89.6173 275.696L52.8356 298.558C52.8356 298.558 51.2351 302.646 52.8356 302.52C54.436 302.395 86.6608 301.44 86.6608 301.44L86.7798 297.916L54.9183 300.845C54.9183 300.845 53.8879 300.218 55.3474 299.047C56.8069 297.876 89.6173 279.041 89.6173 279.041V275.696Z" fill="#167FFC"/>
<path d="M92.2763 269.827L91.3116 275.282L90.6852 278.781L86.6669 301.449C86.6144 301.752 86.4564 302.027 86.2208 302.225C85.9852 302.422 85.6873 302.53 85.3797 302.53H85.3577C85.0637 302.529 84.7783 302.43 84.5476 302.247C84.317 302.065 84.1544 301.81 84.0862 301.524C84.0418 301.35 84.0354 301.169 84.0674 300.992L84.5779 298.129L87.785 280.102L88.4396 276.432L89.6141 269.833L92.2763 269.827Z" fill="url(#paint13_linear_506_70)"/>
<path d="M131.592 265.273V268.417L90.6885 278.771L91.3117 275.276L131.592 265.273Z" fill="url(#paint14_linear_506_70)"/>
<path d="M131.595 272.943L86.7922 299.817Z" fill="url(#paint15_linear_506_70)"/>
<path d="M54.9278 300.848L84.5812 298.123L84.0707 300.986C84.0394 301.17 84.2335 299.651 84.2774 299.821C76.5978 300.052 54.458 301.073 53.0016 301.8C51.5452 302.527 53.9412 298.64 53.9412 298.64L88.1673 277.991L87.7914 280.096C80.8698 284.077 56.6065 298.042 55.36 299.05C53.8973 300.228 54.9278 300.848 54.9278 300.848Z" fill="url(#paint16_linear_506_70)"/>
<path d="M138.88 262.272L137.254 264.283C137.254 264.283 137.289 265.924 138.413 265.83L144.896 257.277C144.896 257.277 148.592 252.131 145.169 249.761C144.398 249.231 143.512 248.893 142.585 248.774C138.003 248.163 133.934 251.774 133.747 256.391L133.433 263.798L135.525 263.676L135.942 255.401C136.055 251.956 141.924 248.267 144.342 251.859C145.717 253.882 141.436 259.31 138.88 262.272Z" fill="#167FFC"/>
<path d="M119.108 226.246C120.652 224.859 122.077 223.161 122.422 221.113C122.566 220.236 122.519 219.322 122.631 218.442C122.841 216.823 123.132 215.044 124.388 213.998C125.011 213.529 125.732 213.208 126.496 213.058C127.174 212.879 127.875 212.802 128.576 212.832C130.812 212.973 132.795 214.784 133.274 216.97C133.413 217.748 133.47 218.538 133.443 219.328V221.574C133.411 222.07 133.476 222.568 133.634 223.039C133.803 223.453 134.123 223.863 134.016 224.292C133.882 224.616 133.644 224.887 133.34 225.062C132.962 225.356 132.626 225.7 132.34 226.083C131.893 226.688 131.564 227.396 130.975 227.862C130.01 228.63 128.635 228.536 127.417 228.354C126.893 228.245 126.354 228.222 125.823 228.285C124.708 228.489 123.884 229.463 122.807 229.814C122.663 229.868 122.51 229.893 122.356 229.889C121.93 229.861 121.617 229.5 121.35 229.168C120.643 228.276 119.816 227.13 119.108 226.246Z" fill="url(#paint17_linear_506_70)"/>
<path d="M122.403 235.745C121.862 237.637 120.8 239.338 119.336 240.653L101.212 256.976C99.9412 258.122 98.4517 258.999 96.8331 259.553C95.2144 260.108 93.5002 260.329 91.794 260.202C91.6875 260.202 91.5778 260.202 91.4808 260.174C86.5448 259.679 80.7256 257.565 82.254 250.124C84.8128 237.662 110.128 227.227 110.128 227.227C118.35 223.763 121.404 226.7 122.44 230.34C122.929 232.11 122.916 233.982 122.403 235.745Z" fill="#167FFC"/>
<path d="M120.833 233.494L120.561 236.447C120.035 238.304 120.833 239.303 119.349 240.641L101.224 256.964C99.9537 258.11 98.4642 258.986 96.8456 259.541C95.2269 260.095 93.5127 260.316 91.8064 260.19L88.0293 258.517C88.0293 258.517 90.181 251.427 102.396 242.084C114.61 232.742 120.833 233.494 120.833 233.494Z" fill="url(#paint18_linear_506_70)"/>
<path d="M102.183 308.342C102.103 308.338 102.024 308.355 101.954 308.393C101.897 308.437 101.855 308.497 101.832 308.565C101.569 309.191 101.807 309.93 102.064 310.569C102.094 310.665 102.146 310.752 102.217 310.823C102.292 310.879 102.381 310.914 102.474 310.926C103.132 311.026 103.758 310.613 104.425 310.554C104.766 310.57 105.107 310.562 105.446 310.528C105.729 310.442 105.982 310.28 106.177 310.059C106.373 309.837 106.504 309.567 106.555 309.276C106.653 308.697 106.641 308.105 106.52 307.531C106.518 307.442 106.483 307.357 106.42 307.293C106.368 307.261 106.307 307.244 106.245 307.246C105.942 307.229 105.641 307.299 105.377 307.45C105.152 307.578 104.961 307.763 104.751 307.898C103.996 308.346 103.022 308.327 102.183 308.342Z" fill="#167FFC"/>
<path d="M102.183 308.342C102.103 308.338 102.024 308.355 101.954 308.393C101.897 308.437 101.855 308.497 101.832 308.565C101.569 309.191 101.807 309.93 102.064 310.569C102.094 310.665 102.146 310.752 102.217 310.823C102.292 310.879 102.381 310.914 102.474 310.926C103.132 311.026 103.758 310.613 104.425 310.554C104.766 310.57 105.107 310.562 105.446 310.529C105.729 310.442 105.982 310.28 106.177 310.059C106.373 309.837 106.504 309.567 106.555 309.276C106.653 308.697 106.641 308.105 106.52 307.531C106.518 307.442 106.483 307.357 106.42 307.293C106.368 307.261 106.307 307.244 106.245 307.246C105.942 307.229 105.641 307.299 105.377 307.45C105.152 307.578 104.961 307.763 104.751 307.898C103.996 308.346 103.022 308.327 102.183 308.342Z" fill="url(#paint19_linear_506_70)"/>
<path d="M103.122 310.594C102.88 310.671 102.658 310.801 102.474 310.976C102.073 311.396 102.104 312.051 102.189 312.624C102.286 313.297 102.417 313.965 102.584 314.625C102.671 314.97 102.812 315.364 103.15 315.477C103.324 315.519 103.506 315.519 103.68 315.477C106.67 314.956 109.618 314.215 112.499 313.259C112.614 313.236 112.718 313.174 112.794 313.084C112.855 312.97 112.869 312.836 112.831 312.711C112.456 310.763 110.583 310.892 109.057 310.651C107.094 310.337 105.039 309.874 103.122 310.594Z" fill="#595BD4"/>
<path d="M87.9199 263.093C87.9199 263.093 82.1132 261.931 82.6582 265.157C83.2031 268.383 83.6291 269.047 85.2702 269.542C92.1919 271.549 99.4987 267.199 99.4987 267.199C99.4987 267.199 100.091 262.889 87.9199 263.093Z" fill="#167FFC"/>
<path d="M87.9199 263.093C87.9199 263.093 82.1132 261.931 82.6582 265.157C83.2031 268.383 83.6291 269.047 85.2702 269.542C92.1919 271.549 99.4987 267.199 99.4987 267.199C99.4987 267.199 100.091 262.889 87.9199 263.093Z" fill="url(#paint20_linear_506_70)"/>
<path d="M127.27 219.961C127.085 220.753 127.016 221.608 126.549 222.272L125.976 220.787C125.945 220.663 125.874 220.553 125.773 220.474C125.708 220.445 125.638 220.432 125.568 220.436C125.498 220.44 125.429 220.461 125.369 220.496C125.159 220.609 124.984 220.775 124.86 220.978C124.737 221.182 124.67 221.414 124.667 221.652C124.668 222.13 124.81 222.596 125.077 222.992C125.165 223.109 125.227 223.244 125.259 223.387C125.261 223.515 125.224 223.641 125.152 223.748C125.081 223.854 124.978 223.936 124.858 223.982C124.615 224.069 124.357 224.103 124.1 224.082L122.732 224.063C121.479 224.045 120.06 223.957 119.236 223.011C119.424 222.735 119.863 222.698 120.044 222.441C120.104 222.341 120.136 222.226 120.136 222.109C120.136 221.992 120.104 221.878 120.044 221.777C119.92 221.579 119.759 221.406 119.571 221.267L118.682 220.537C118.45 220.343 118.2 220.086 118.262 219.792C118.381 219.231 119.465 219.259 119.455 218.689C119.455 218.41 119.161 218.238 118.92 218.097C118.679 217.956 118.422 217.706 118.519 217.446C118.632 217.133 119.083 217.18 119.377 217.026C119.377 216.657 118.807 216.522 118.751 216.162C118.743 216.061 118.766 215.961 118.816 215.874C118.867 215.787 118.942 215.717 119.033 215.673C119.216 215.592 119.414 215.549 119.615 215.548L120.987 215.441C122.775 215.252 124.576 215.211 126.371 215.319C126.726 215.332 127.076 215.412 127.401 215.554C127.765 215.754 128.07 216.047 128.284 216.403C128.563 216.848 128.447 216.976 128.231 217.433C127.821 218.239 127.498 219.086 127.27 219.961Z" fill="#595BD4"/>
<path d="M138.203 264.499L137.264 264.283C137.264 264.283 137.298 265.924 138.423 265.83L144.906 257.277C144.906 257.277 148.602 252.131 145.178 249.761C144.408 249.231 143.522 248.893 142.594 248.774C138.012 248.163 133.944 251.774 133.756 256.391L133.443 263.798L134.326 263.275L134.89 255.238C135.003 251.793 141.414 247.409 145.147 251.167C147.784 253.794 141.448 262.463 138.203 264.499Z" fill="url(#paint21_linear_506_70)"/>
<path opacity="0.42" d="M108.973 310.187C102.446 310.187 62.5478 305.602 54.5237 304.672C53.7342 304.587 53.0081 304.2 52.4977 303.591C51.9874 302.983 51.7325 302.201 51.7864 301.408C51.8835 300.337 52.5944 299.003 55.4445 298.737C55.9456 298.69 105.465 294.092 110.288 293.572C112.838 293.3 115.184 293.989 116.89 295.511C117.686 296.243 118.318 297.135 118.744 298.129C119.17 299.123 119.381 300.196 119.362 301.277C119.39 307.124 116.067 310.046 109.198 310.184L108.973 310.187ZM55.4915 299.36C53.5466 299.542 52.5067 300.25 52.3971 301.465C52.3575 302.095 52.5637 302.717 52.9725 303.199C53.3813 303.68 53.9609 303.985 54.5895 304.049C62.7107 304.988 103.504 309.686 109.192 309.558C115.735 309.42 118.77 306.789 118.741 301.28C118.759 300.286 118.565 299.299 118.173 298.386C117.78 297.472 117.198 296.652 116.465 295.981C114.899 294.575 112.722 293.939 110.348 294.196C105.521 294.716 56.002 299.313 55.4978 299.36H55.4915Z" fill="black"/>
<path d="M134.323 213.355C134.323 214.198 134.194 215.106 133.543 215.723C132.951 216.284 132.052 216.494 131.197 216.625C126.64 217.317 121.981 216.494 117.936 214.283C117.247 213.897 116.502 213.249 116.784 212.573C116.871 212.389 117.006 212.232 117.175 212.118C117.378 211.983 117.593 211.868 117.817 211.774C119.697 210.928 121.595 210.08 123.511 209.284C124.567 208.812 125.668 208.447 126.797 208.194C128.613 207.837 131.332 207.912 132.885 208.971C133.916 209.672 134.207 211.204 134.288 212.46C134.313 212.782 134.32 213.089 134.323 213.355Z" fill="#167FFC"/>
<path d="M134.288 212.46C134.243 213.081 133.979 213.666 133.543 214.11C132.951 214.674 132.052 214.884 131.197 215.015C126.639 215.706 121.981 214.882 117.936 212.67C117.661 212.518 117.406 212.332 117.175 212.118C117.378 211.983 117.593 211.868 117.817 211.774C119.697 210.928 121.594 210.08 123.511 209.284C124.567 208.812 125.668 208.447 126.797 208.194C128.613 207.837 131.332 207.912 132.885 208.971C133.916 209.672 134.207 211.204 134.288 212.46Z" fill="url(#paint22_linear_506_70)"/>
<path d="M119.365 228.323C118.593 228.253 117.824 228.476 117.21 228.949C115.75 229.989 114.989 231.752 114.532 233.484C114.089 235.367 113.784 237.279 113.621 239.206C113.405 241.201 113.188 243.24 113.621 245.204C113.755 245.83 114 246.51 114.56 246.835C115.224 247.227 116.064 246.983 116.793 246.732L121.425 245.128C121.777 245.054 122.085 244.846 122.287 244.549C122.39 244.271 122.397 243.967 122.309 243.685C121.792 241.179 122.13 237.931 122.334 235.391C122.49 233.259 122.938 228.811 119.365 228.323Z" fill="#167FFC"/>
<path d="M114.548 246.845C114.548 246.845 117.41 252.623 118.782 253.985C120.154 255.348 140.393 263.964 140.393 263.964C140.393 263.964 141.179 264.872 142.67 264.321C144.16 263.769 145.751 260.155 145.751 260.155C145.751 260.155 144.63 258.627 143.265 258.558C141.899 258.489 142.67 257.487 142.67 257.487L140.255 258.558C140.255 258.558 138.795 259.266 134.968 256.601C131.141 253.935 123.38 250.468 123.38 250.468L121.41 245.144L114.548 246.845Z" fill="url(#paint23_linear_506_70)"/>
<path d="M117.52 225.755L120.455 224.893C120.455 224.893 122.487 228.617 122.356 229.87L117.52 225.755Z" fill="#167FFC"/>
<path d="M117.52 225.755L120.455 224.893C120.455 224.893 122.487 228.617 122.356 229.87L117.52 225.755Z" fill="url(#paint24_linear_506_70)"/>
<path d="M122.274 244.558L121.961 246.666L115.334 248.414L113.927 246.184C113.927 246.184 118.738 245.363 122.274 244.558Z" fill="#167FFC"/>
<path d="M122.274 244.558L121.961 246.666L115.334 248.414L113.927 246.184C113.927 246.184 118.738 245.363 122.274 244.558Z" fill="url(#paint25_linear_506_70)"/>
<path d="M81.8689 258.141C81.8689 258.141 81.9034 265.404 89.6236 266.657C97.3439 267.91 112.825 264.712 112.825 264.712L116.424 257.806L98.8629 253.237C98.8629 253.237 83.2156 251.358 81.8689 258.141Z" fill="#595BD4"/>
<path d="M116.424 257.806L112.825 264.712C112.825 264.712 116.583 263.841 116.978 264.59C117.373 265.339 113.868 266.883 113.464 277.149C113.42 278.283 112.728 282.808 112.524 283.926L111.898 285.949C111.898 285.949 114.591 286.234 114.717 286.194C114.842 286.153 126.051 262.416 121.986 259.72C120.818 258.934 116.424 257.806 116.424 257.806Z" fill="url(#paint26_linear_506_70)"/>
<path d="M110.088 286.031C110.088 285.822 110.134 285.617 110.224 285.428C110.314 285.24 110.445 285.075 110.608 284.944C110.745 284.87 110.896 284.825 111.052 284.811C111.207 284.797 111.364 284.815 111.513 284.863C111.809 284.957 112.098 285.074 112.377 285.21C113.001 285.471 113.675 285.592 114.35 285.567C114.645 285.567 114.977 285.542 115.171 285.774C115.233 285.889 115.268 286.017 115.271 286.147C115.275 286.278 115.248 286.407 115.193 286.526C115.033 287.041 114.828 287.542 114.582 288.023C114.552 288.097 114.504 288.163 114.441 288.214C114.374 288.253 114.299 288.276 114.222 288.283C113.091 288.453 111.939 288.426 110.817 288.204C109.53 287.948 110 286.999 110.088 286.031Z" fill="#167FFC"/>
<path d="M105.377 307.456C105.152 307.585 104.961 307.769 104.751 307.904Z" fill="url(#paint27_linear_506_70)"/>
<path d="M110.088 286.031C110.088 285.822 110.134 285.617 110.224 285.428C110.314 285.24 110.445 285.075 110.608 284.944C110.745 284.87 110.896 284.825 111.052 284.811C111.207 284.797 111.364 284.815 111.513 284.863C111.809 284.957 112.098 285.074 112.377 285.21C113.001 285.471 113.675 285.592 114.35 285.567C114.645 285.567 114.977 285.542 115.171 285.774C115.233 285.889 115.268 286.017 115.271 286.147C115.275 286.278 115.248 286.407 115.193 286.526C115.033 287.041 114.828 287.542 114.582 288.023C114.552 288.097 114.504 288.163 114.441 288.214C114.374 288.253 114.299 288.276 114.222 288.283C113.091 288.453 111.939 288.426 110.817 288.204C109.53 287.948 110 286.999 110.088 286.031Z" fill="url(#paint28_linear_506_70)"/>
<path d="M110.179 287.838C110.771 287.731 111.372 287.682 111.973 287.691C112.464 287.698 112.946 287.814 113.386 288.032C114.419 288.58 114.952 289.802 115.932 290.416C116.395 290.653 116.872 290.862 117.36 291.042C117.605 291.134 117.828 291.275 118.018 291.455C118.207 291.635 118.358 291.851 118.463 292.091C118.543 292.398 118.564 292.716 118.525 293.031C118.54 293.271 118.461 293.507 118.306 293.692C118.123 293.817 117.901 293.874 117.68 293.851C116.94 293.851 110.254 292.764 107.751 292.31C107.62 292.288 106.27 292.589 106.784 290.942C106.966 290.338 107.207 289.754 107.504 289.197C107.964 288.236 109.248 287.976 110.179 287.838Z" fill="#595BD4"/>
<path d="M108.7 314.396L107.426 314.002L113.934 293.187L115.205 293.579L108.7 314.396Z" fill="#167FFC"/>
<path d="M108.7 314.396L107.426 314.002L113.934 293.187L115.205 293.579L108.7 314.396Z" fill="url(#paint29_linear_506_70)"/>
<path d="M110.836 292.893L110.357 294.499L118.19 295.558L118.409 294.161L110.836 292.893ZM104.059 315.026L104.256 316.689L111.867 314.547L111.513 313.175L104.059 315.026Z" fill="#167FFC"/>
<path d="M110.836 292.893L110.357 294.499L118.19 295.558L118.409 294.161L110.836 292.893Z" fill="url(#paint30_linear_506_70)"/>
<path d="M104.059 315.026L104.256 316.689L111.867 314.547L111.513 313.175L104.059 315.026Z" fill="url(#paint31_linear_506_70)"/>
<path d="M111.854 303.093C112.479 303.093 112.985 302.587 112.985 301.963C112.985 301.338 112.479 300.832 111.854 300.832C111.23 300.832 110.724 301.338 110.724 301.963C110.724 302.587 111.23 303.093 111.854 303.093Z" fill="#167FFC"/>
<path d="M112.02 303.093C112.645 303.093 113.151 302.587 113.151 301.963C113.151 301.338 112.645 300.832 112.02 300.832C111.396 300.832 110.89 301.338 110.89 301.963C110.89 302.587 111.396 303.093 112.02 303.093Z" fill="url(#paint32_linear_506_70)"/>
<path d="M123.953 243.988L122.227 244.906L121.98 246.663L123.953 245.605V243.988Z" fill="#167FFC"/>
<path d="M123.953 243.988L122.227 244.906L121.98 246.663L123.953 245.605V243.988Z" fill="url(#paint33_linear_506_70)"/>
</g>
</g>
<defs>
<linearGradient id="paint0_linear_506_70" x1="264.5" y1="0" x2="264.5" y2="321" gradientUnits="userSpaceOnUse">
<stop stop-color="#E8F4FF"/>
<stop offset="0.822895" stop-color="#C1E6FF"/>
<stop offset="1" stop-color="#B9E3FF"/>
</linearGradient>
<linearGradient id="paint1_linear_506_70" x1="267" y1="0" x2="267" y2="331" gradientUnits="userSpaceOnUse">
<stop stop-color="#E8F4FF"/>
<stop offset="0.822895" stop-color="#C1E6FF"/>
<stop offset="1" stop-color="#B9E3FF"/>
</linearGradient>
<linearGradient id="paint2_linear_506_70" x1="116.721" y1="254.377" x2="146.18" y2="254.377" gradientUnits="userSpaceOnUse">
<stop stop-color="#C4C5EC"/>
<stop offset="0.42" stop-color="#FE9526"/>
<stop offset="1" stop-color="#F2DEC9"/>
</linearGradient>
<linearGradient id="paint3_linear_506_70" x1="136.24" y1="250.838" x2="121.66" y2="259.892" gradientUnits="userSpaceOnUse">
<stop stop-opacity="0"/>
<stop offset="0.88" stop-opacity="0.8"/>
<stop offset="0.97"/>
</linearGradient>
<linearGradient id="paint4_linear_506_70" x1="124.623" y1="239.125" x2="120.978" y2="238.83" gradientUnits="userSpaceOnUse">
<stop stop-opacity="0"/>
<stop offset="0.88" stop-opacity="0.8"/>
<stop offset="0.97"/>
</linearGradient>
<linearGradient id="paint5_linear_506_70" x1="97.2868" y1="310.509" x2="97.8074" y2="338.755" gradientUnits="userSpaceOnUse">
<stop stop-color="#C3D2E0"/>
<stop offset="0.88" stop-color="#C3D2E0"/>
<stop offset="0.97" stop-color="#C8D3E5"/>
</linearGradient>
<linearGradient id="paint6_linear_506_70" x1="115.158" y1="284.146" x2="107.752" y2="318.183" gradientUnits="userSpaceOnUse">
<stop stop-opacity="0"/>
<stop offset="0.88" stop-opacity="0.8"/>
<stop offset="0.97"/>
</linearGradient>
<linearGradient id="paint7_linear_506_70" x1="129.042" y1="291.646" x2="146.904" y2="289.432" gradientUnits="userSpaceOnUse">
<stop stop-color="#53D86A" stop-opacity="0"/>
<stop offset="0.84" stop-color="#53D86A" stop-opacity="0.84"/>
<stop offset="0.97" stop-color="#53D86A"/>
</linearGradient>
<linearGradient id="paint8_linear_506_70" x1="91.4619" y1="292.263" x2="107.926" y2="295.636" gradientUnits="userSpaceOnUse">
<stop stop-color="#C4C5EC"/>
<stop offset="0.42" stop-color="#FE9526"/>
<stop offset="1" stop-color="#F2DEC9"/>
</linearGradient>
<linearGradient id="paint9_linear_506_70" x1="107.278" y1="281.339" x2="110.689" y2="286.867" gradientUnits="userSpaceOnUse">
<stop stop-opacity="0"/>
<stop offset="0.88" stop-opacity="0.8"/>
<stop offset="0.97"/>
</linearGradient>
<linearGradient id="paint10_linear_506_70" x1="135.673" y1="269.009" x2="130.843" y2="269.181" gradientUnits="userSpaceOnUse">
<stop stop-opacity="0"/>
<stop offset="0.88" stop-opacity="0.8"/>
<stop offset="0.97"/>
</linearGradient>
<linearGradient id="paint11_linear_506_70" x1="139.503" y1="267.788" x2="134.677" y2="268.981" gradientUnits="userSpaceOnUse">
<stop stop-color="#53D86A" stop-opacity="0"/>
<stop offset="0.84" stop-color="#53D86A" stop-opacity="0.84"/>
<stop offset="0.97" stop-color="#53D86A"/>
</linearGradient>
<linearGradient id="paint12_linear_506_70" x1="137.214" y1="268.317" x2="129.497" y2="270.224" gradientUnits="userSpaceOnUse">
<stop stop-color="#53D86A" stop-opacity="0"/>
<stop offset="0.84" stop-color="#53D86A" stop-opacity="0.84"/>
<stop offset="0.97" stop-color="#53D86A"/>
</linearGradient>
<linearGradient id="paint13_linear_506_70" x1="86.2441" y1="285.693" x2="89.0065" y2="286.222" gradientUnits="userSpaceOnUse">
<stop stop-opacity="0"/>
<stop offset="0.88" stop-opacity="0.8"/>
<stop offset="0.97"/>
</linearGradient>
<linearGradient id="paint14_linear_506_70" x1="110.617" y1="269.92" x2="111.613" y2="273.907" gradientUnits="userSpaceOnUse">
<stop stop-opacity="0"/>
<stop offset="0.88" stop-opacity="0.8"/>
<stop offset="0.97"/>
</linearGradient>
<linearGradient id="paint15_linear_506_70" x1="86.7922" y1="286.379" x2="131.595" y2="286.379" gradientUnits="userSpaceOnUse">
<stop stop-opacity="0"/>
<stop offset="0.88" stop-opacity="0.8"/>
<stop offset="0.97"/>
</linearGradient>
<linearGradient id="paint16_linear_506_70" x1="58.9461" y1="288.248" x2="90.1968" y2="292.849" gradientUnits="userSpaceOnUse">
<stop stop-opacity="0"/>
<stop offset="0.88" stop-opacity="0.8"/>
<stop offset="0.97"/>
</linearGradient>
<linearGradient id="paint17_linear_506_70" x1="119.108" y1="221.345" x2="134.038" y2="221.345" gradientUnits="userSpaceOnUse">
<stop stop-color="#C4C5EC"/>
<stop offset="0.42" stop-color="#FE9526"/>
<stop offset="1" stop-color="#F2DEC9"/>
</linearGradient>
<linearGradient id="paint18_linear_506_70" x1="79.2222" y1="260.656" x2="136.439" y2="231.535" gradientUnits="userSpaceOnUse">
<stop stop-opacity="0"/>
<stop offset="0.88" stop-opacity="0.8"/>
<stop offset="0.97"/>
</linearGradient>
<linearGradient id="paint19_linear_506_70" x1="110.858" y1="309.451" x2="97.278" y2="308.699" gradientUnits="userSpaceOnUse">
<stop stop-color="#53D86A" stop-opacity="0"/>
<stop offset="0.84" stop-color="#53D86A" stop-opacity="0.84"/>
<stop offset="0.97" stop-color="#53D86A"/>
</linearGradient>
<linearGradient id="paint20_linear_506_70" x1="72.7361" y1="266.262" x2="91.4308" y2="266.529" gradientUnits="userSpaceOnUse">
<stop stop-opacity="0"/>
<stop offset="0.88" stop-opacity="0.8"/>
<stop offset="0.97"/>
</linearGradient>
<linearGradient id="paint21_linear_506_70" x1="132.149" y1="260.077" x2="154.107" y2="251.436" gradientUnits="userSpaceOnUse">
<stop stop-color="#53D86A" stop-opacity="0"/>
<stop offset="0.52" stop-color="#53D86A" stop-opacity="0.84"/>
<stop offset="0.97" stop-color="#53D86A"/>
</linearGradient>
<linearGradient id="paint22_linear_506_70" x1="124.542" y1="205.61" x2="126.894" y2="218.426" gradientUnits="userSpaceOnUse">
<stop stop-opacity="0"/>
<stop offset="0.88" stop-opacity="0.8"/>
<stop offset="0.97"/>
</linearGradient>
<linearGradient id="paint23_linear_506_70" x1="114.548" y1="254.819" x2="145.748" y2="254.819" gradientUnits="userSpaceOnUse">
<stop stop-color="#C4C5EC"/>
<stop offset="0.42" stop-color="#FE9526"/>
<stop offset="1" stop-color="#F2DEC9"/>
</linearGradient>
<linearGradient id="paint24_linear_506_70" x1="123.975" y1="226.729" x2="119.39" y2="227.903" gradientUnits="userSpaceOnUse">
<stop stop-opacity="0"/>
<stop offset="0.88" stop-opacity="0.8"/>
<stop offset="0.97"/>
</linearGradient>
<linearGradient id="paint25_linear_506_70" x1="118.159" y1="240.81" x2="118.071" y2="249.1" gradientUnits="userSpaceOnUse">
<stop stop-opacity="0"/>
<stop offset="0.88" stop-opacity="0.8"/>
<stop offset="0.97"/>
</linearGradient>
<linearGradient id="paint26_linear_506_70" x1="107.664" y1="275.088" x2="125.575" y2="268.087" gradientUnits="userSpaceOnUse">
<stop stop-color="#C4C5EC"/>
<stop offset="0.42" stop-color="#FE9526"/>
<stop offset="1" stop-color="#F2DEC9"/>
</linearGradient>
<linearGradient id="paint27_linear_506_70" x1="104.735" y1="307.678" x2="105.377" y2="307.678" gradientUnits="userSpaceOnUse">
<stop stop-color="#53D86A" stop-opacity="0"/>
<stop offset="0.84" stop-color="#53D86A" stop-opacity="0.84"/>
<stop offset="0.97" stop-color="#53D86A"/>
</linearGradient>
<linearGradient id="paint28_linear_506_70" x1="115.306" y1="287.622" x2="109.662" y2="285.974" gradientUnits="userSpaceOnUse">
<stop stop-color="#53D86A" stop-opacity="0"/>
<stop offset="0.84" stop-color="#53D86A" stop-opacity="0.84"/>
<stop offset="0.97" stop-color="#53D86A"/>
</linearGradient>
<linearGradient id="paint29_linear_506_70" x1="109.565" y1="303.31" x2="113.091" y2="304.28" gradientUnits="userSpaceOnUse">
<stop stop-opacity="0"/>
<stop offset="0.88" stop-opacity="0.8"/>
<stop offset="0.97"/>
</linearGradient>
<linearGradient id="paint30_linear_506_70" x1="114.682" y1="291.834" x2="114.197" y2="295.893" gradientUnits="userSpaceOnUse">
<stop stop-opacity="0"/>
<stop offset="0.88" stop-opacity="0.8"/>
<stop offset="0.97"/>
</linearGradient>
<linearGradient id="paint31_linear_506_70" x1="107.191" y1="312.201" x2="108.381" y2="316.874" gradientUnits="userSpaceOnUse">
<stop stop-opacity="0"/>
<stop offset="0.88" stop-opacity="0.8"/>
<stop offset="0.97"/>
</linearGradient>
<linearGradient id="paint32_linear_506_70" x1="110.89" y1="301.963" x2="113.151" y2="301.963" gradientUnits="userSpaceOnUse">
<stop stop-opacity="0"/>
<stop offset="0.88" stop-opacity="0.8"/>
<stop offset="0.97"/>
</linearGradient>
<linearGradient id="paint33_linear_506_70" x1="124.006" y1="247.499" x2="122.331" y2="244.001" gradientUnits="userSpaceOnUse">
<stop stop-opacity="0"/>
<stop offset="0.88" stop-opacity="0.8"/>
<stop offset="0.97"/>
</linearGradient>
<clipPath id="clip0_506_70">
<rect width="534" height="331" fill="white"/>
</clipPath>
<clipPath id="clip1_506_70">
<rect width="149" height="118" fill="white" transform="translate(20 208)"/>
</clipPath>
</defs>
</svg>
